TITLE ""
FILE "Step2_Track10.mp3" MP3
  TRACK 01 AUDIO
    TITLE "Step2_Track10_01"
    INDEX 01 00:00:00
  TRACK 02 AUDIO
    TITLE "Step2_Track10_02"
    INDEX 01 00:00:24
  TRACK 03 AUDIO
    TITLE "Step2_Track10_03"
    INDEX 01 00:01:53
  TRACK 04 AUDIO
    TITLE "Step2_Track10_04"
    INDEX 01 00:02:35
  TRACK 05 AUDIO
    TITLE "Step2_Track10_05"
    INDEX 01 00:03:32
  TRACK 06 AUDIO
    TITLE "Step2_Track10_06"
    INDEX 01 00:03:67
  TRACK 07 AUDIO
    TITLE "Step2_Track10_07"
    INDEX 01 00:06:11
  TRACK 08 AUDIO
    TITLE "Step2_Track10_08"
    INDEX 01 00:06:25
  TRACK 09 AUDIO
    TITLE "Step2_Track10_09"
    INDEX 01 00:07:20
  TRACK 10 AUDIO
    TITLE "Step2_Track10_10"
    INDEX 01 00:07:36
  TRACK 11 AUDIO
    TITLE "Step2_Track10_11"
    INDEX 01 00:09:11
  TRACK 12 AUDIO
    TITLE "Step2_Track10_12"
    INDEX 01 00:09:52
  TRACK 13 AUDIO
    TITLE "Step2_Track10_13"
    INDEX 01 00:10:48
  TRACK 14 AUDIO
    TITLE "Step2_Track10_14"
    INDEX 01 00:10:64
  TRACK 15 AUDIO
    TITLE "Step2_Track10_15"
    INDEX 01 00:12:68
  TRACK 16 AUDIO
    TITLE "Step2_Track10_16"
    INDEX 01 00:13:27
  TRACK 17 AUDIO
    TITLE "Step2_Track10_17"
    INDEX 01 00:14:26
  TRACK 18 AUDIO
    TITLE "Step2_Track10_18"
    INDEX 01 00:14:32
  TRACK 19 AUDIO
    TITLE "Step2_Track10_19"
    INDEX 01 00:16:35
  TRACK 20 AUDIO
    TITLE "Step2_Track10_20"
    INDEX 01 00:16:60
  TRACK 21 AUDIO
    TITLE "Step2_Track10_21"
    INDEX 01 00:17:54
  TRACK 22 AUDIO
    TITLE "Step2_Track10_22"
    INDEX 01 00:17:58
  TRACK 23 AUDIO
    TITLE "Step2_Track10_23"
    INDEX 01 00:19:49
  TRACK 24 AUDIO
    TITLE "Step2_Track10_24"
    INDEX 01 00:20:05
  TRACK 25 AUDIO
    TITLE "Step2_Track10_25"
    INDEX 01 00:21:09
  TRACK 26 AUDIO
    TITLE "Step2_Track10_26"
    INDEX 01 00:21:16
  TRACK 27 AUDIO
    TITLE "Step2_Track10_27"
    INDEX 01 00:23:17
  TRACK 28 AUDIO
    TITLE "Step2_Track10_28"
    INDEX 01 00:23:47
  TRACK 29 AUDIO
    TITLE "Step2_Track10_29"
    INDEX 01 00:24:50
  TRACK 30 AUDIO
    TITLE "Step2_Track10_30"
    INDEX 01 00:24:68
  TRACK 31 AUDIO
    TITLE "Step2_Track10_31"
    INDEX 01 00:26:47
  TRACK 32 AUDIO
    TITLE "Step2_Track10_32"
    INDEX 01 00:26:72
  TRACK 33 AUDIO
    TITLE "Step2_Track10_33"
    INDEX 01 00:27:64
  TRACK 34 AUDIO
    TITLE "Step2_Track10_34"
    INDEX 01 00:27:74
  TRACK 35 AUDIO
    TITLE "Step2_Track10_35"
    INDEX 01 00:30:27
  TRACK 36 AUDIO
    TITLE "Step2_Track10_36"
    INDEX 01 00:30:60
  TRACK 37 AUDIO
    TITLE "Step2_Track10_37"
    INDEX 01 00:31:62
  TRACK 38 AUDIO
    TITLE "Step2_Track10_38"
    INDEX 01 00:31:70
  TRACK 39 AUDIO
    TITLE "Step2_Track10_39"
    INDEX 01 00:34:17
  TRACK 40 AUDIO
    TITLE "Step2_Track10_40"
    INDEX 01 00:34:48
  TRACK 41 AUDIO
    TITLE "Step2_Track10_41"
    INDEX 01 00:35:44
  TRACK 42 AUDIO
    TITLE "Step2_Track10_42"
    INDEX 01 00:35:50
  TRACK 43 AUDIO
    TITLE "Step2_Track10_43"
    INDEX 01 00:38:07
